# xmcd
#
# Track frame offsets:
#	150
#	15184
#	29466
#	44406
#	54837
#	64985
#	80126
#	89238
#	105252
#	120419
#
# Disc length: 2826 seconds
#
# Revision: 1
# Processed by: cddbd v1.5.2PL0 Copyright (c) Steve Scherf et al.
# Submitted via: audiograbber 1.83.01
#
DISCID=790b080a
DTITLE=Tor Lundvall - Yule
DYEAR=2006
DGENRE=Holiday
TTITLE0=Busy Station
TTITLE1=The Train Home
TTITLE2=Christmas Eve
TTITLE3=12:00 AM
TTITLE4=Snowy Morning
TTITLE5=Yule Song
TTITLE6=Fading Light
TTITLE7=January
TTITLE8=White on Grey
TTITLE9=The Falling Snow
EXTD=
EXTT0=
EXTT1=
EXTT2=
EXTT3=
EXTT4=
EXTT5=
EXTT6=
EXTT7=
EXTT8=
EXTT9=
PLAYORDER=
